<svg width="13" height="13" viewBox="0 0 13 13" fill="none" xmlns="http://www.w3.org/2000/svg">
<path d="M11.9719 5.83791V6.74447H1.03133V3.49426H0V9.99572H1.03133V8.50992H11.9719V10.1198H13V5.83686L11.9719 5.83791Z" fill="#ED8383"/>
<path d="M4.71736 5.84732V5.84784C4.71736 6.14322 4.46982 6.38308 4.16378 6.38308H2.05453C1.90771 6.38308 1.7669 6.32669 1.66309 6.22632C1.55927 6.12594 1.50095 5.9898 1.50095 5.84784V5.8468C1.50095 5.55142 1.74849 5.31155 2.05453 5.31155H4.16378C4.46928 5.31155 4.71736 5.55089 4.71736 5.8468V5.84732Z" fill="#ED8383"/>
<path d="M10.6941 3.75193H9.41037V2.51385H8.50037V3.75245H7.21933V4.6323H8.49983V5.87089H9.40983V4.6323H10.6936L10.6941 3.75193Z" fill="#ED8383"/>
</svg>
