<svg width="10" height="10" viewBox="0 0 10 10" fill="none" xmlns="http://www.w3.org/2000/svg">
<path fill-rule="evenodd" clip-rule="evenodd" d="M5 0C5.08288 0 5.16237 0.032924 5.22097 0.0915291C5.27958 0.150134 5.3125 0.22962 5.3125 0.3125V0.63375C7.89062 0.77375 10 2.6375 10 5C10 5 10 5.3125 9.6875 5.3125C9.59437 5.3125 9.4675 5.22187 9.4675 5.22187L9.465 5.21937L9.44938 5.205C9.34206 5.11179 9.22589 5.02932 9.1025 4.95875C8.80577 4.78493 8.46887 4.69144 8.125 4.6875C7.72625 4.6875 7.38875 4.82062 7.1475 4.95875C7.02412 5.02932 6.90794 5.11179 6.80062 5.205L6.785 5.21937L6.78312 5.22125C6.78312 5.22125 6.65562 5.3125 6.5625 5.3125C6.46938 5.3125 6.3425 5.22187 6.3425 5.22187L6.34 5.21937L6.32438 5.205C6.21706 5.11179 6.10088 5.02932 5.9775 4.95875C5.77155 4.83976 5.54656 4.7573 5.3125 4.715V8.4375H5H5.3125V8.46187L5.30937 8.51375C5.2926 8.75325 5.22934 8.98719 5.12312 9.2025C5.01502 9.4244 4.85059 9.61405 4.64625 9.7525C4.4125 9.90687 4.11688 10 3.75 10C3.38313 10 3.08687 9.9075 2.85375 9.7525C2.64937 9.61409 2.48493 9.42443 2.37687 9.2025C2.26306 8.97147 2.19877 8.7192 2.18812 8.46187V8.44625L2.1875 8.44063V8.43875C2.1875 8.43875 2.1875 8.4375 2.5 8.4375H2.1875V8.125C2.1875 8.04212 2.22042 7.96263 2.27903 7.90403C2.33763 7.84542 2.41712 7.8125 2.5 7.8125C2.58288 7.8125 2.66237 7.84542 2.72097 7.90403C2.77958 7.96263 2.8125 8.04212 2.8125 8.125V8.44125L2.81437 8.46875C2.82531 8.62645 2.8667 8.78054 2.93625 8.9225C2.99563 9.04187 3.08 9.15187 3.20062 9.23187C3.31937 9.31125 3.49187 9.375 3.75 9.375C4.00812 9.375 4.18062 9.31125 4.29938 9.23187C4.42 9.15187 4.50437 9.04187 4.56437 8.9225C4.63789 8.77219 4.67979 8.6084 4.6875 8.44125V4.715C4.45344 4.7573 4.22845 4.83976 4.0225 4.95875C3.89305 5.03297 3.77158 5.1203 3.66 5.21937L3.6575 5.22187C3.6575 5.22187 3.53125 5.3125 3.4375 5.3125C3.34437 5.3125 3.2175 5.22187 3.2175 5.22187L3.215 5.21937C3.10342 5.1203 2.98195 5.03297 2.8525 4.95875C2.55577 4.78493 2.21887 4.69144 1.875 4.6875C1.47625 4.6875 1.13937 4.82062 0.8975 4.95875C0.768051 5.03297 0.646579 5.1203 0.535 5.21937L0.5325 5.22187C0.5325 5.22187 0.40625 5.3125 0.3125 5.3125C0 5.3125 0 5 0 5C0 2.6375 2.10938 0.77375 4.6875 0.63375V0.3125C4.6875 0.22962 4.72042 0.150134 4.77903 0.0915291C4.83763 0.032924 4.91712 0 5 0V0Z" fill="#ED8383"/>
</svg>
